<svg width="32" height="32" viewBox="0 0 32 32" fill="none" xmlns="http://www.w3.org/2000/svg">
<g id="vuesax/outline/add-circle">
<g id="vuesax/outline/add-circle_2">
<g id="add-circle">
<path id="Vector" d="M15.9998 30.3333C8.09317 30.3333 1.6665 23.9067 1.6665 16C1.6665 8.09334 8.09317 1.66667 15.9998 1.66667C23.9065 1.66667 30.3332 8.09334 30.3332 16C30.3332 23.9067 23.9065 30.3333 15.9998 30.3333ZM15.9998 3.66667C9.19984 3.66667 3.6665 9.20001 3.6665 16C3.6665 22.8 9.19984 28.3333 15.9998 28.3333C22.7998 28.3333 28.3332 22.8 28.3332 16C28.3332 9.20001 22.7998 3.66667 15.9998 3.66667Z" fill="white"/>
<path id="Vector_2" d="M21.3332 17H10.6665C10.1198 17 9.6665 16.5467 9.6665 16C9.6665 15.4533 10.1198 15 10.6665 15H21.3332C21.8798 15 22.3332 15.4533 22.3332 16C22.3332 16.5467 21.8798 17 21.3332 17Z" fill="white"/>
<path id="Vector_3" d="M16 22.3333C15.4533 22.3333 15 21.88 15 21.3333V10.6667C15 10.12 15.4533 9.66667 16 9.66667C16.5467 9.66667 17 10.12 17 10.6667V21.3333C17 21.88 16.5467 22.3333 16 22.3333Z" fill="white"/>
</g>
</g>
</g>
</svg>
