<svg width="29" height="29" viewBox="0 0 29 29" fill="none" xmlns="http://www.w3.org/2000/svg">
<g id="vuesax/outline/logout">
<g id="vuesax/outline/logout_2">
<g id="logout">
<path id="Vector" d="M10.7201 2.51832L10.8717 2.51832C16.0517 2.51832 18.5484 4.55999 18.9801 9.13332C19.0267 9.61166 18.6767 10.0433 18.1867 10.09C17.7201 10.1367 17.2767 9.77499 17.2301 9.29666C16.8917 5.63332 15.1651 4.26832 10.8601 4.26832L10.7084 4.26832C5.96006 4.26832 4.28006 5.94832 4.28006 10.6967L4.28006 18.3033C4.28006 23.0517 5.96006 24.7317 10.7084 24.7317L10.8601 24.7317C15.1884 24.7317 16.9151 23.3433 17.2301 19.61C17.2884 19.1317 17.6967 18.77 18.1867 18.8167C18.6767 18.8517 19.0267 19.2833 18.9917 19.7617C18.5951 24.405 16.0867 26.4817 10.8717 26.4817L10.7201 26.4817C4.99173 26.4817 2.54173 24.0317 2.54173 18.3033L2.54173 10.6967C2.54173 4.96832 4.99173 2.51832 10.7201 2.51832Z" fill="#E40000"/>
<path id="Vector_2" d="M10.9997 13.625L24.2764 13.625C24.7547 13.625 25.1514 14.0217 25.1514 14.5C25.1514 14.9783 24.7547 15.375 24.2764 15.375L10.9997 15.375C10.5214 15.375 10.1247 14.9783 10.1247 14.5C10.1247 14.0217 10.5214 13.625 10.9997 13.625Z" fill="#E40000"/>
<path id="Vector_3" d="M21.6747 9.71668C21.8963 9.71668 22.118 9.79834 22.293 9.97334L26.2013 13.8817C26.5397 14.22 26.5397 14.78 26.2013 15.1183L22.293 19.0267C21.9547 19.365 21.3947 19.365 21.0563 19.0267C20.718 18.6883 20.718 18.1283 21.0563 17.79L24.3463 14.5L21.0563 11.21C20.718 10.8717 20.718 10.3117 21.0563 9.97334C21.2197 9.79834 21.453 9.71668 21.6747 9.71668Z" fill="#E40000"/>
</g>
</g>
</g>
</svg>
