<svg width="32" height="32" viewBox="0 0 32 32" fill="none" xmlns="http://www.w3.org/2000/svg">
<g id="vuesax/outline/note">
<g id="vuesax/outline/note_2">
<g id="note">
<path id="Vector" d="M21.0801 26.9067C20.7334 26.9067 20.3734 26.8933 19.9868 26.8533C19.2934 26.8 18.5068 26.6667 17.6934 26.4667L15.4534 25.9333C9.30676 24.48 7.29343 21.2267 8.73343 15.0933L10.0401 9.50667C10.3334 8.24 10.6801 7.21333 11.1068 6.36C13.4001 1.62667 17.7868 2.05333 20.9068 2.78667L23.1334 3.30667C26.2534 4.04 28.2268 5.2 29.3334 6.97333C30.4268 8.74667 30.6001 11.0267 29.8668 14.1467L28.5601 19.72C27.4134 24.6 25.0268 26.9067 21.0801 26.9067ZM17.4934 4.33333C15.2668 4.33333 13.8534 5.25333 12.9068 7.22667C12.5601 7.94667 12.2534 8.84 11.9868 9.96L10.6801 15.5467C9.49343 20.5867 10.8668 22.7867 15.9068 23.9867L18.1468 24.52C18.8668 24.6933 19.5468 24.8 20.1601 24.8533C23.7734 25.2133 25.5868 23.6267 26.6001 19.2667L27.9068 13.6933C28.5068 11.12 28.4268 9.32 27.6268 8.02667C26.8268 6.73333 25.2534 5.85333 22.6668 5.25333L20.4401 4.73333C19.3334 4.46667 18.3468 4.33333 17.4934 4.33333Z" fill="#133675"/>
<path id="Vector_2" d="M11.1066 29.6667C7.67991 29.6667 5.49324 27.6133 4.09324 23.28L2.38657 18.0133C0.493239 12.1467 2.18657 8.84001 8.02657 6.94667L10.1332 6.26667C10.8266 6.05334 11.3466 5.90667 11.8132 5.82667C12.1866 5.74667 12.5732 5.89334 12.7999 6.20001C13.0266 6.50667 13.0666 6.90667 12.9066 7.25334C12.5599 7.96001 12.2532 8.85334 11.9999 9.97334L10.6932 15.56C9.50657 20.6 10.8799 22.8 15.9199 24L18.1599 24.5333C18.8799 24.7067 19.5599 24.8133 20.1732 24.8667C20.5999 24.9067 20.9466 25.2 21.0666 25.6133C21.1732 26.0267 21.0132 26.4533 20.6666 26.6933C19.7866 27.2933 18.6799 27.8 17.2799 28.2533L15.1732 28.9467C13.6399 29.4267 12.3066 29.6667 11.1066 29.6667ZM10.3732 8.29334L8.65324 8.85334C3.89324 10.3867 2.75991 12.6267 4.29324 17.4L5.99991 22.6667C7.54657 27.4267 9.78657 28.5733 14.5466 27.04L16.6532 26.3467C16.7332 26.32 16.7999 26.2933 16.8799 26.2667L15.4666 25.9333C9.31991 24.48 7.30657 21.2267 8.74657 15.0933L10.0532 9.50667C10.1466 9.08001 10.2532 8.66667 10.3732 8.29334Z" fill="#133675"/>
</g>
</g>
</g>
</svg>
