<svg width="24" height="24" viewBox="0 0 24 24" fill="none" xmlns="http://www.w3.org/2000/svg">
<path d="M18.7491 9.70957C18.7491 10.5552 18.9903 11.3818 19.4422 12.0854L20.5496 13.8095C21.5612 15.3843 20.789 17.5249 19.0296 18.0229C14.4273 19.3257 9.57274 19.3257 4.97036 18.0229C3.21105 17.5249 2.43882 15.3843 3.45036 13.8095L4.5578 12.0854C5.00972 11.3818 5.25087 10.5552 5.25087 9.70957V9.00496C5.25087 5.13623 8.27256 2 12 2C13.4107 2 14.7204 2.44925 15.8034 3.21743" stroke="#09070C" stroke-width="1.5" stroke-linecap="round"/>
<path opacity="0.5" d="M7.5 19C8.15503 20.7478 9.92246 22 12 22C14.0775 22 15.845 20.7478 16.5 19" stroke="#09070C" stroke-width="1.5" stroke-linecap="round"/>
<circle cx="18" cy="6" r="2" fill="#A52732"/>
</svg>
