<svg width="32" height="32" viewBox="0 0 32 32" fill="none" xmlns="http://www.w3.org/2000/svg">
<g id="vuesax/outline/clipboard-text">
<g id="vuesax/outline/clipboard-text_2">
<g id="clipboard-text">
<path id="Vector" d="M19.9998 17.2667H10.6665C10.1198 17.2667 9.6665 16.8133 9.6665 16.2667C9.6665 15.72 10.1198 15.2667 10.6665 15.2667H19.9998C20.5465 15.2667 20.9998 15.72 20.9998 16.2667C20.9998 16.8133 20.5465 17.2667 19.9998 17.2667Z" fill="#133675"/>
<path id="Vector_2" d="M16.5065 22.6H10.6665C10.1198 22.6 9.6665 22.1467 9.6665 21.6C9.6665 21.0533 10.1198 20.6 10.6665 20.6H16.5065C17.0532 20.6 17.5065 21.0533 17.5065 21.6C17.5065 22.1467 17.0532 22.6 16.5065 22.6Z" fill="#133675"/>
<path id="Vector_3" d="M18.6665 8.99999H13.3332C12.0532 8.99999 9.6665 8.99999 9.6665 5.33332C9.6665 1.66666 12.0532 1.66666 13.3332 1.66666H18.6665C19.9465 1.66666 22.3332 1.66666 22.3332 5.33332C22.3332 6.61332 22.3332 8.99999 18.6665 8.99999ZM13.3332 3.66666C12.0132 3.66666 11.6665 3.66666 11.6665 5.33332C11.6665 6.99999 12.0132 6.99999 13.3332 6.99999H18.6665C20.3332 6.99999 20.3332 6.65332 20.3332 5.33332C20.3332 3.66666 19.9865 3.66666 18.6665 3.66666H13.3332Z" fill="#133675"/>
<path id="Vector_4" d="M20 30.3333H12C4.50667 30.3333 3 26.8933 3 21.3333V13.3333C3 7.25334 5.2 4.65334 10.6133 4.37334C11.1467 4.34668 11.64 4.76001 11.6667 5.32001C11.6933 5.88001 11.2667 6.33334 10.72 6.36001C6.93333 6.57334 5 7.70668 5 13.3333V21.3333C5 26.2667 5.97333 28.3333 12 28.3333H20C26.0267 28.3333 27 26.2667 27 21.3333V13.3333C27 7.70668 25.0667 6.57334 21.28 6.36001C20.7333 6.33334 20.3067 5.85334 20.3333 5.30668C20.36 4.76001 20.84 4.33334 21.3867 4.36001C26.8 4.65334 29 7.25334 29 13.32V21.32C29 26.8933 27.4933 30.3333 20 30.3333Z" fill="#133675"/>
</g>
</g>
</g>
</svg>
