<svg width="220" height="60" viewBox="0 0 220 60" fill="none" xmlns="http://www.w3.org/2000/svg">
<g id="Group 1">
<path id="Intersect" fill-rule="evenodd" clip-rule="evenodd" d="M188.863 18.9045C188.898 18.917 191.802 19.9479 197.624 19.9479C203.446 19.9479 206.35 18.917 206.385 18.9045H206.385V0H219.622C219.617 0.0456272 218.071 13.7254 218.071 24.1976C218.071 34.6873 219.622 48.3953 219.622 48.3953H206.385V29.491H206.385V29.4909H188.863L188.863 48.3953H175.626C175.631 48.3489 177.176 34.6696 177.176 24.1977C177.176 13.708 175.626 0 175.626 0H188.863L188.863 18.9044C188.863 18.9044 188.863 18.9044 188.863 18.9044V18.9045H188.863Z" fill="#133675"/>
<g id="&#217;&#135;&#217;&#133;&#217;&#128;&#219;&#140;&#216;&#167;&#216;&#177;">
<path d="M3.11584 59.5237L0.0102539 51.7293C3.5015 50.5114 6.32291 49.1717 8.4745 47.7103C10.6667 46.2488 12.2702 44.6859 13.2851 43.0215C14.3406 41.357 14.8683 39.6317 14.8683 37.8455C14.8683 36.7088 14.706 35.5315 14.3812 34.3136C14.0564 33.0552 13.5896 31.7358 12.9806 30.3555C12.4123 28.9753 11.7222 27.5341 10.9102 26.0321L18.8873 22.1958C20.3082 24.9157 21.4043 27.5138 22.1756 29.9902C22.9875 32.4665 23.3935 34.7805 23.3935 36.9321C23.3935 38.9213 23.1296 40.8293 22.6019 42.6561C22.1147 44.4829 21.3434 46.1879 20.2879 47.7712C19.273 49.395 17.9536 50.9174 16.3298 52.3382C14.706 53.7591 12.798 55.0581 10.6058 56.2354C8.4136 57.4533 5.91696 58.5494 3.11584 59.5237Z" fill="#133675"/>
<path d="M46.3614 45.8226C42.586 45.8226 39.6631 45.4369 37.5927 44.6656C35.5629 43.8943 34.142 42.6967 33.3301 41.0729C32.5182 39.4084 32.0513 37.3177 31.9296 34.8008L30.6508 0.943817H39.1759L40.4547 30.7209C40.5359 32.5883 40.7389 33.9889 41.0636 34.9226C41.3884 35.8563 41.9973 36.4855 42.8905 36.8103C43.8242 37.1351 45.1841 37.2974 46.9703 37.2974C48.513 37.2974 49.6091 37.7034 50.2586 38.5153C50.9487 39.2866 51.2938 40.2609 51.2938 41.4382C51.2938 42.6967 50.8675 43.7522 50.015 44.6047C49.1625 45.4166 47.9446 45.8226 46.3614 45.8226Z" fill="#133675"/>
<path d="M46.4442 45.8226L47.0531 37.2974C48.5146 37.2974 49.773 37.1553 50.8285 36.8712C51.884 36.587 52.7771 36.0187 53.5079 35.1662C54.2386 34.273 54.8475 32.974 55.3347 31.2689C55.8624 29.5639 56.3293 27.2905 56.7352 24.4488L64.7123 25.7885C64.6311 26.3974 64.5093 27.1079 64.347 27.9198C64.2252 28.7317 64.1034 29.5639 63.9816 30.4164C63.9004 31.2284 63.8598 31.9997 63.8598 32.7304C63.8598 33.4611 64.0019 34.1107 64.2861 34.679C64.5702 35.2473 65.0168 35.7345 65.6257 36.1405C66.2753 36.5058 67.1075 36.79 68.1224 36.993C69.1779 37.1959 70.4566 37.2974 71.9587 37.2974C73.5013 37.2974 74.5974 37.7034 75.247 38.5153C75.8965 39.2866 76.2213 40.2609 76.2213 41.4382C76.2213 42.6967 75.795 43.7522 74.9425 44.6047C74.1306 45.4166 72.933 45.8226 71.3498 45.8226C69.5229 45.8226 67.8585 45.6805 66.3565 45.3963C64.895 45.1121 63.6162 44.6453 62.5201 43.9958C61.4647 43.3056 60.5918 42.4125 59.9017 41.3164C59.2522 40.1797 58.8462 38.7995 58.6838 37.1756H61.6067C60.876 39.1242 59.9423 40.6872 58.8056 41.8645C57.7095 43.0012 56.4714 43.8537 55.0911 44.422C53.7108 44.9904 52.2697 45.3557 50.7676 45.5181C49.3062 45.7211 47.865 45.8226 46.4442 45.8226ZM63.4336 59.9499C62.2563 59.9499 61.2414 59.5237 60.3889 58.6712C59.5769 57.8593 59.171 56.885 59.171 55.7483C59.171 54.571 59.5769 53.5561 60.3889 52.7036C61.2414 51.8511 62.2563 51.4248 63.4336 51.4248C64.5702 51.4248 65.5445 51.8511 66.3565 52.7036C67.1684 53.5561 67.5743 54.571 67.5743 55.7483C67.5743 56.885 67.1684 57.8593 66.3565 58.6712C65.5445 59.5237 64.5702 59.9499 63.4336 59.9499ZM52.8989 59.9499C51.7216 59.9499 50.7067 59.5237 49.8542 58.6712C49.0423 57.8593 48.6364 56.885 48.6364 55.7483C48.6364 54.571 49.0423 53.5561 49.8542 52.7036C50.7067 51.8511 51.7216 51.4248 52.8989 51.4248C54.0356 51.4248 55.0099 51.8511 55.8218 52.7036C56.6337 53.5561 57.0397 54.571 57.0397 55.7483C57.0397 56.885 56.6337 57.8593 55.8218 58.6712C55.0099 59.5237 54.0356 59.9499 52.8989 59.9499Z" fill="#133675"/>
<path d="M71.3607 45.8226L71.9696 37.2974H89.5071C91.0497 37.2974 92.1458 37.7034 92.7953 38.5153C93.4854 39.2866 93.8305 40.2609 93.8305 41.4382C93.8305 42.6967 93.4043 43.7522 92.5517 44.6047C91.6992 45.4166 90.4814 45.8226 88.8981 45.8226H71.3607Z" fill="#133675"/>
<path d="M88.9628 45.8226L89.5718 37.2974C90.5867 37.2974 91.358 37.0945 91.8857 36.6885C92.4135 36.2825 92.9412 35.5721 93.469 34.5572C93.9967 33.5423 94.7274 32.1621 95.6611 30.4164C96.676 28.4678 97.7315 26.844 98.8276 25.5449C99.9237 24.2053 101.02 23.1498 102.116 22.3784C103.253 21.5665 104.369 20.9982 105.465 20.6734C106.602 20.3081 107.718 20.1254 108.814 20.1254C110.316 20.1254 111.717 20.4501 113.016 21.0997C114.356 21.7086 115.634 22.7844 116.852 24.327C118.07 25.8291 119.227 27.8995 120.323 30.5382C121.094 32.365 121.866 33.7656 122.637 34.7399C123.408 35.7142 124.2 36.384 125.012 36.7494C125.864 37.1148 126.717 37.2974 127.569 37.2974C129.112 37.2974 130.208 37.7034 130.858 38.5153C131.507 39.2866 131.832 40.2609 131.832 41.4382C131.832 42.6967 131.406 43.7522 130.553 44.6047C129.701 45.4166 128.503 45.8226 126.961 45.8226C124.971 45.8226 123.165 45.4978 121.541 44.8483C119.917 44.1987 118.638 43.2244 117.705 41.9254L119.471 40.5857C119.105 41.4382 118.557 42.3313 117.826 43.265C117.136 44.1987 116.223 44.9904 115.086 45.6399C113.99 46.2894 112.671 46.6142 111.128 46.6142C110.113 46.6142 108.916 46.4112 107.535 46.0053C106.196 45.6399 104.795 45.0107 103.334 44.1175C101.913 43.1838 100.594 41.9254 99.3757 40.3421C98.6043 41.763 97.7518 42.8794 96.8181 43.6913C95.8844 44.4626 94.7883 45.0107 93.5299 45.3354C92.2714 45.6602 90.749 45.8226 88.9628 45.8226ZM102.908 33.1567C103.313 33.7656 103.801 34.3745 104.369 34.9835C104.937 35.5924 105.567 36.1405 106.257 36.6276C106.947 37.0742 107.678 37.4395 108.449 37.7237C109.261 38.0079 110.052 38.1499 110.824 38.1499C111.636 38.1499 112.305 37.8455 112.833 37.2365C113.361 36.587 113.381 35.633 112.894 34.3745C112.691 33.8468 112.407 33.2581 112.042 32.6086C111.717 31.9185 111.331 31.2689 110.885 30.66C110.479 30.0511 110.012 29.5436 109.484 29.1377C108.997 28.7317 108.489 28.5287 107.962 28.5287C107.434 28.5287 106.886 28.6911 106.318 29.0159C105.749 29.3406 105.181 29.8481 104.613 30.5382C104.044 31.1878 103.476 32.0606 102.908 33.1567Z" fill="#133675"/>
<path d="M151.746 46.0053C149.919 46.0053 148.031 45.782 146.083 45.3354C144.175 44.8889 142.328 44.219 140.541 43.3259C138.755 42.4328 137.152 41.3164 135.731 39.9768C134.31 38.6371 133.173 37.0945 132.321 35.3488C131.509 33.5626 131.103 31.5531 131.103 29.3203C131.103 27.4935 131.488 25.8088 132.26 24.2662C133.031 22.7235 134.168 21.4853 135.67 20.5516C137.212 19.5773 139.08 19.0902 141.272 19.0902C143.342 19.0902 145.129 19.5976 146.631 20.6125C148.173 21.5868 149.371 22.8656 150.223 24.4488C151.076 25.9915 151.502 27.6153 151.502 29.3203C151.502 32.0403 150.832 34.4354 149.493 36.5058C148.153 38.5356 146.306 40.2406 143.951 41.6209C141.637 43.0012 139.019 44.0567 136.096 44.7874C133.173 45.4775 130.128 45.8226 126.962 45.8226L127.571 37.2974C129.885 37.2974 131.894 37.2365 133.599 37.1148C135.345 36.993 136.847 36.7291 138.106 36.3231C139.364 35.9172 140.46 35.3082 141.394 34.4963C142.328 33.6844 143.038 32.7913 143.525 31.817C144.053 30.8021 144.317 29.8075 144.317 28.8332C144.317 28.1837 144.215 27.5747 144.012 27.0064C143.85 26.438 143.566 25.9712 143.16 25.6058C142.794 25.1999 142.307 24.9969 141.698 24.9969C141.049 24.9969 140.501 25.1999 140.054 25.6058C139.648 25.9712 139.323 26.4583 139.08 27.0673C138.877 27.6762 138.775 28.3257 138.775 29.0159C138.775 30.4367 139.141 31.7155 139.871 32.8522C140.643 33.9889 141.658 34.9429 142.916 35.7142C144.175 36.4855 145.555 37.0742 147.057 37.4801C148.6 37.8861 150.163 38.0891 151.746 38.0891C153.004 38.0891 153.897 37.8861 154.425 37.4801C154.953 37.0742 155.217 36.5261 155.217 35.836C155.217 35.3488 155.095 34.8414 154.851 34.3136C154.648 33.7453 154.182 33.0552 153.451 32.2432C152.72 31.4313 151.604 30.4367 150.102 29.2594C148.6 28.0416 146.59 26.5395 144.073 24.7533C141.556 22.9671 138.39 20.7952 134.574 18.2377L139.263 11.6002C143.566 14.6449 147.158 17.304 150.041 19.5773C152.964 21.8507 155.318 23.8399 157.104 25.5449C158.891 27.25 160.251 28.752 161.184 30.0511C162.159 31.3095 162.808 32.4665 163.133 33.522C163.458 34.5775 163.62 35.633 163.62 36.6885C163.62 38.6371 163.153 40.3015 162.22 41.6818C161.286 43.062 159.926 44.1378 158.14 44.9092C156.394 45.6399 154.263 46.0053 151.746 46.0053Z" fill="#133675"/>
</g>
</g>
</svg>
