<svg width="32" height="32" viewBox="0 0 32 32" fill="none" xmlns="http://www.w3.org/2000/svg">
<g id="vuesax/outline/info-circle">
<g id="vuesax/outline/info-circle_2">
<g id="info-circle">
<path id="Vector" d="M15.9998 30.3333C8.09317 30.3333 1.6665 23.9067 1.6665 16C1.6665 8.09334 8.09317 1.66667 15.9998 1.66667C23.9065 1.66667 30.3332 8.09334 30.3332 16C30.3332 23.9067 23.9065 30.3333 15.9998 30.3333ZM15.9998 3.66667C9.19984 3.66667 3.6665 9.20001 3.6665 16C3.6665 22.8 9.19984 28.3333 15.9998 28.3333C22.7998 28.3333 28.3332 22.8 28.3332 16C28.3332 9.20001 22.7998 3.66667 15.9998 3.66667Z" fill="#133675"/>
<path id="Vector_2" d="M16 18.3333C15.4533 18.3333 15 17.88 15 17.3333V10.6667C15 10.12 15.4533 9.66667 16 9.66667C16.5467 9.66667 17 10.12 17 10.6667V17.3333C17 17.88 16.5467 18.3333 16 18.3333Z" fill="#133675"/>
<path id="Vector_3" d="M15.9998 22.6667C15.8265 22.6667 15.6532 22.6267 15.4932 22.56C15.3332 22.4933 15.1865 22.4 15.0532 22.28C14.9332 22.1467 14.8398 22.0133 14.7732 21.84C14.7065 21.68 14.6665 21.5067 14.6665 21.3333C14.6665 21.16 14.7065 20.9867 14.7732 20.8267C14.8398 20.6667 14.9332 20.52 15.0532 20.3867C15.1865 20.2667 15.3332 20.1733 15.4932 20.1067C15.8132 19.9733 16.1865 19.9733 16.5065 20.1067C16.6665 20.1733 16.8132 20.2667 16.9465 20.3867C17.0665 20.52 17.1598 20.6667 17.2265 20.8267C17.2932 20.9867 17.3332 21.16 17.3332 21.3333C17.3332 21.5067 17.2932 21.68 17.2265 21.84C17.1598 22.0133 17.0665 22.1467 16.9465 22.28C16.8132 22.4 16.6665 22.4933 16.5065 22.56C16.3465 22.6267 16.1732 22.6667 15.9998 22.6667Z" fill="#133675"/>
</g>
</g>
</g>
</svg>
