<svg width="203" height="56" viewBox="0 0 203 56" fill="none" xmlns="http://www.w3.org/2000/svg">
<path d="M22.076 21.4L17.796 25.68L13.516 21.4L17.796 17.12L22.076 21.4ZM32.3161 28.8H33.3961V36H32.556C32.316 36 32.0094 35.9733 31.636 35.92C31.5027 38.5067 30.556 40.52 28.7961 41.96C27.0361 43.4267 24.3161 44.5867 20.636 45.44C18.6094 45.9467 16.7694 46.0667 15.116 45.8C13.4627 45.5333 11.9827 45.0133 10.676 44.24C9.39605 43.4933 8.32938 42.44 7.47605 41.08C6.64938 39.7467 6.04938 38.24 5.67605 36.56C5.32938 34.9067 5.26272 33.04 5.47605 30.96C5.68938 28.8533 6.18272 26.6667 6.95605 24.4L13.036 26.8C11.516 31.1733 11.316 34.3867 12.436 36.44C13.556 38.52 15.8094 39.1733 19.196 38.4C22.0227 37.76 23.7694 37.2 24.436 36.72C25.1027 36.24 25.3427 35.3333 25.156 34L23.516 23L29.8361 21.96L30.316 25.12C30.6094 26.7733 30.8761 27.8 31.116 28.2C31.356 28.6 31.756 28.8 32.3161 28.8ZM49.9998 24.64C50.8531 27.84 50.4398 30.5333 48.7598 32.72C47.0798 34.9067 44.5865 36 41.2798 36H32.9998V28.8H41.2798C42.5331 28.8 43.3198 28.6133 43.6398 28.24C43.9865 27.8667 44.0131 27.16 43.7198 26.12L42.1598 20.16L48.3198 18.32L49.9998 24.64ZM33.1598 42L36.9198 38.2L40.7198 42L36.9198 45.76L33.1598 42ZM41.8398 42L45.5998 38.2L49.3998 42L45.5998 45.76L41.8398 42ZM66.2985 28.8H66.4985V36H66.2985H65.9385C65.8852 38.6667 64.9252 40.7467 63.0585 42.24C61.2185 43.7333 58.2319 45.0533 54.0985 46.2L52.4185 39.24C55.7252 38.3333 57.7652 37.6267 58.5385 37.12C59.3385 36.6133 59.6452 35.72 59.4585 34.44L57.8585 22.96L64.1785 22L64.6185 25.12C64.8052 26.24 64.9919 27.08 65.1785 27.64C65.3652 28.2 65.5252 28.5333 65.6585 28.64C65.8185 28.7467 66.0319 28.8 66.2985 28.8ZM75.0857 14.88L80.6857 23.28C81.8857 25.0933 82.5524 26.8933 82.6857 28.68C82.8191 30.4667 82.4457 31.9467 81.5657 33.12C80.2057 35.04 78.0457 36 75.0857 36H66.0857V28.8H75.1657C75.5657 28.8 75.8324 28.7333 75.9657 28.6C76.2057 28.36 76.1657 28.0267 75.8457 27.6L67.0857 15.2L68.5257 9.76L83.0057 4.44L85.2457 11.16L75.0857 14.88ZM98.5851 36C95.5451 36 93.3584 35.2533 92.0251 33.76C90.7184 32.2667 89.9984 29.7333 89.8651 26.16L89.1451 7.76L95.5451 7.44L96.2651 26.16C96.2651 27.4933 96.3584 28.2667 96.5451 28.48C96.7318 28.6933 97.4118 28.8 98.5851 28.8H98.9851V36H98.5851ZM120.146 20.84C122.119 21.8533 123.479 23.4933 124.226 25.76C124.999 28 124.892 30.1467 123.906 32.2C122.892 34.3067 121.372 35.7333 119.346 36.48C117.346 37.2533 115.319 37.1733 113.266 36.24L109.306 34.4C106.932 35.4667 104.266 36 101.306 36H98.5857V28.8H100.906C100.186 27.5733 99.7857 26.2533 99.7057 24.84C99.6524 23.4 99.9457 21.9867 100.586 20.6C101.466 18.7067 102.812 17.3067 104.626 16.4L106.026 13.4L120.146 20.84ZM109.946 25.36C110.132 24.9067 110.146 24.4667 109.986 24.04C109.852 23.5867 109.559 23.24 109.106 23C108.546 22.7333 108.052 22.6533 107.626 22.76C107.199 22.84 106.879 23.0667 106.666 23.44C106.399 23.84 106.332 24.2667 106.466 24.72C106.599 25.1733 106.932 25.5333 107.466 25.8L109.226 26.68C109.332 26.5467 109.572 26.1067 109.946 25.36ZM118.266 29.44C118.479 29.0933 118.506 28.6933 118.346 28.24C118.186 27.76 117.839 27.3867 117.306 27.12L116.306 26.6C116.146 27.16 115.946 27.7333 115.706 28.32C115.519 28.7733 115.279 29.2267 114.986 29.68L115.866 30.12C116.292 30.36 116.746 30.4133 117.226 30.28C117.706 30.1467 118.052 29.8667 118.266 29.44Z" fill="#A52732"/>
<path d="M202.993 28.0111C202.993 37.6342 198.482 46.2004 191.465 51.7231C190.315 52.6232 189.103 53.4401 187.837 54.1674C187.672 54.2408 187.497 54.29 187.318 54.3136C187.234 54.3251 187.148 54.3308 187.063 54.3307C186.732 54.331 186.406 54.2458 186.118 54.0835C185.829 53.9211 185.588 53.687 185.416 53.4039L185.411 53.3944C185.384 53.346 185.358 53.2994 185.335 53.2539C185.332 53.25 185.329 53.2454 185.328 53.2406C185.192 52.9832 185.114 52.7952 185.114 52.7952C185.114 52.7952 183.827 48.6446 180.228 43.3165C178.794 41.1939 177.197 39.1856 175.453 37.3094L175.445 37.298C175.147 36.9494 174.83 36.6181 174.495 36.3057L174.485 36.2953C172.801 34.7291 170.697 33.6876 168.431 33.2979C166.164 32.9082 163.834 33.1873 161.723 34.1011C159.613 35.0148 157.815 36.5236 156.548 38.4431C155.282 40.3625 154.602 42.6093 154.592 44.9089V44.9583C154.591 45.6298 154.648 46.3001 154.762 46.9619C154.761 46.9701 154.761 46.9784 154.762 46.9866C154.761 46.9885 154.761 46.9904 154.762 46.9923C155.264 50.2655 156.8 53.0345 158.857 54.7067C155.105 52.7363 151.808 49.9982 149.183 46.6704L149.178 46.6647C144.982 41.3537 142.704 34.7799 142.715 28.0111C142.715 18.388 147.227 9.82185 154.243 4.29908C155.393 3.39897 156.606 2.58215 157.872 1.85485C158.037 1.78145 158.211 1.7322 158.39 1.70862C158.475 1.69716 158.56 1.69145 158.646 1.69153C158.977 1.69122 159.302 1.77637 159.591 1.93873C159.879 2.10109 160.121 2.33518 160.292 2.61832L160.298 2.62781C160.325 2.67624 160.35 2.72277 160.374 2.76835C160.377 2.77248 160.379 2.77695 160.381 2.78165C160.516 3.03898 160.594 3.227 160.594 3.227C160.594 3.227 161.882 7.37763 165.481 12.7057C166.918 14.8323 168.517 16.8447 170.264 18.7251C170.561 19.074 170.878 19.4053 171.213 19.7175L171.224 19.7279C172.908 21.295 175.012 22.3372 177.28 22.727C179.547 23.1168 181.878 22.8374 183.989 21.9229C186.1 21.0083 187.899 19.4984 189.165 17.5777C190.431 15.6571 191.11 13.409 191.119 11.1085V11.0668C191.119 10.3869 191.061 9.70834 190.945 9.03844C190.945 9.03658 190.945 9.03461 190.945 9.03275C190.442 5.75764 188.908 2.98771 186.85 1.31549C191.72 3.86971 195.798 7.70724 198.643 12.4127C201.489 17.1181 202.993 22.5122 202.993 28.0111Z" fill="#591B20"/>
<path d="M203 27.6529V27.558C203 27.4886 203 27.4203 202.995 27.3519C202.995 27.3196 202.995 27.2873 202.995 27.257C202.995 27.2408 202.995 27.2247 202.995 27.2095C202.995 27.1943 202.995 27.1677 202.995 27.1477C202.995 27.0765 202.995 27.0063 202.989 26.935C202.989 26.9189 202.989 26.9028 202.989 26.8876C202.989 26.8724 202.989 26.8591 202.989 26.8448C202.989 26.8306 202.989 26.8173 202.989 26.804C202.989 26.6891 202.979 26.5751 202.973 26.4612C202.973 26.4546 202.973 26.4479 202.973 26.4413L202.968 26.3378C202.968 26.2504 202.958 26.164 202.952 26.0776C202.952 26.0681 202.952 26.0605 202.952 26.051C202.944 25.9323 202.936 25.8126 202.927 25.6939C202.922 25.6351 202.918 25.5762 202.914 25.5164C202.909 25.4565 202.904 25.3996 202.898 25.3397C202.891 25.2448 202.881 25.1498 202.872 25.0492C202.865 24.9846 202.858 24.92 202.851 24.8545C202.847 24.8077 202.842 24.7611 202.837 24.7149C202.837 24.6912 202.837 24.6674 202.829 24.6427L202.817 24.5354C202.817 24.5079 202.811 24.4813 202.807 24.4547C202.802 24.4044 202.796 24.355 202.789 24.3056C202.769 24.1385 202.747 23.9733 202.725 23.8081C202.725 23.8081 202.725 23.8033 202.725 23.8005C202.71 23.6979 202.695 23.5944 202.679 23.4919C202.679 23.4757 202.679 23.4615 202.673 23.4463C202.668 23.4311 202.665 23.3931 202.661 23.3665C202.645 23.2621 202.628 23.1576 202.61 23.0532C202.599 22.9886 202.589 22.925 202.577 22.8632C202.577 22.8309 202.567 22.7987 202.561 22.7683C202.553 22.7151 202.542 22.6619 202.533 22.6097C202.519 22.5347 202.506 22.4597 202.491 22.3846C202.482 22.3362 202.473 22.2897 202.463 22.2394C202.45 22.1729 202.437 22.1064 202.425 22.039C202.425 22.0143 202.414 21.9896 202.408 21.964L202.391 21.8785C202.372 21.7836 202.353 21.6981 202.333 21.6069V21.5974C202.333 21.5794 202.325 21.5614 202.321 21.5443C202.303 21.4493 202.283 21.3638 202.261 21.2736C202.254 21.2347 202.244 21.1977 202.236 21.1587C202.227 21.1198 202.215 21.0685 202.203 21.0239L202.198 21.0021C202.183 20.9387 202.168 20.8754 202.152 20.8121L202.138 20.7533C202.138 20.7333 202.128 20.7143 202.124 20.6953C202.123 20.6928 202.123 20.6903 202.124 20.6877L202.105 20.6184L202.086 20.5425L202.066 20.4608C202.06 20.437 202.053 20.4143 202.047 20.3905C202.031 20.3307 202.015 20.2709 202 20.2129C202 20.2035 202 20.1949 201.992 20.1845C201.984 20.1512 201.974 20.1189 201.966 20.0895C201.957 20.0601 201.956 20.0525 201.951 20.0344C201.928 19.9471 201.903 19.8597 201.879 19.7723V19.76C201.864 19.7125 201.851 19.665 201.837 19.6166C201.822 19.5682 201.811 19.5302 201.799 19.4856C201.798 19.4807 201.796 19.4759 201.794 19.4713C201.786 19.4438 201.778 19.4162 201.77 19.3897C201.75 19.3213 201.729 19.2539 201.709 19.1855C201.7 19.1561 201.69 19.1266 201.681 19.0972C201.672 19.0678 201.66 19.0279 201.649 18.9937C201.626 18.9196 201.603 18.8456 201.578 18.7715C201.564 18.7269 201.551 18.6832 201.536 18.6376C201.531 18.6214 201.525 18.6063 201.52 18.5901C201.5 18.5265 201.478 18.4629 201.457 18.4002C201.412 18.2663 201.362 18.1324 201.319 17.9995C201.193 17.6437 201.061 17.2901 200.923 16.9388C200.883 16.8372 200.843 16.7365 200.801 16.6349C200.759 16.5333 200.72 16.4393 200.679 16.3415L200.599 16.1516C200.549 16.0329 200.498 15.9161 200.446 15.7983C200.419 15.7395 200.393 15.6806 200.367 15.6227C200.317 15.5106 200.266 15.3995 200.215 15.2894C200.164 15.1792 200.12 15.0919 200.074 14.994L200.045 14.9323C200.008 14.8564 199.971 14.7794 199.933 14.7025C199.919 14.6731 199.904 14.6436 199.889 14.6142C199.826 14.4879 199.763 14.3626 199.699 14.2344C199.636 14.1062 199.574 13.9922 199.509 13.8726L199.487 13.8299C199.438 13.7406 199.392 13.6513 199.341 13.5621C199.317 13.5184 199.294 13.4728 199.268 13.4291C199.227 13.3541 199.185 13.2791 199.144 13.205L199.096 13.1215L199.06 13.0597C199.006 12.9648 198.951 12.8698 198.895 12.7749C198.886 12.7597 198.878 12.7445 198.868 12.7302C198.84 12.6809 198.811 12.6353 198.782 12.584C198.752 12.5327 198.708 12.4596 198.671 12.3941C198.599 12.2744 198.526 12.1557 198.451 12.038C198.392 11.943 198.33 11.8481 198.268 11.7531L198.225 11.6866L198.166 11.5917L198.018 11.3932L197.979 11.3363C197.94 11.2774 197.902 11.2195 197.862 11.1615C197.822 11.1036 197.783 11.0457 197.744 10.9878C197.668 10.8776 197.591 10.7665 197.513 10.6564C197.511 10.6513 197.507 10.6466 197.504 10.6421C197.482 10.6127 197.461 10.5823 197.44 10.5528C197.307 10.3629 197.171 10.1797 197.035 9.99639C196.955 9.89004 196.876 9.78463 196.795 9.68018C196.753 9.62416 196.711 9.57003 196.667 9.51495L196.642 9.48077C196.605 9.43424 196.568 9.38581 196.532 9.34308L196.508 9.31079C196.503 9.30299 196.497 9.29567 196.491 9.28895L196.405 9.1826C196.379 9.15031 196.354 9.11613 196.326 9.08764C196.313 9.0715 196.3 9.05441 196.285 9.03826C196.238 8.97844 196.191 8.92051 196.142 8.86164L196.095 8.80371C196.069 8.77428 196.043 8.74294 196.019 8.70876L195.91 8.58056C195.887 8.55208 195.863 8.52264 195.838 8.4951C195.784 8.43148 195.731 8.36786 195.676 8.30518C195.582 8.19503 195.487 8.08615 195.391 7.97853L195.208 7.77342L195.198 7.76297C195.186 7.75095 195.175 7.7386 195.164 7.72594C195.094 7.64902 195.025 7.57306 194.955 7.49804L194.945 7.48759C194.866 7.40308 194.787 7.31857 194.707 7.23501C194.628 7.15144 194.541 7.06028 194.457 6.97482C194.372 6.88936 194.296 6.81149 194.214 6.72983C194.204 6.71664 194.192 6.70456 194.178 6.69374C194.083 6.59878 193.988 6.50383 193.893 6.40887C193.875 6.38868 193.855 6.36966 193.835 6.35189C193.682 6.20376 193.528 6.05847 193.373 5.91414L193.194 5.74891L193.159 5.71852C193.064 5.63211 192.97 5.5476 192.875 5.46309L192.817 5.41181L192.799 5.39566C192.704 5.31495 192.616 5.23519 192.524 5.15637C192.503 5.13738 192.481 5.12029 192.462 5.10224C192.14 4.82623 191.813 4.55623 191.48 4.29225C189.489 2.73117 187.312 1.42546 184.997 0.405609C183.744 -0.145149 182.288 -0.195476 181.143 0.633509C179.427 1.87556 179.252 4.14696 179.225 6.08886C179.225 6.24902 179.225 6.4095 179.225 6.5703C179.233 6.72793 179.238 6.9188 179.24 7.14005C179.24 7.31477 179.24 7.50754 179.233 7.71549V12.508C179.242 14.4573 178.803 16.3827 177.952 18.1362C177.1 19.8897 175.858 21.4246 174.321 22.623C172.207 24.269 169.605 25.1623 166.926 25.1612L165.826 25.1736H165.821C165.684 25.1793 165.545 25.1802 165.403 25.1793H165.337H165.242H165.138C165.087 25.1793 165.036 25.1793 164.984 25.1726H164.972C164.906 25.1726 164.839 25.166 164.772 25.1603C164.767 25.1612 164.762 25.1612 164.756 25.1603C164.696 25.1603 164.636 25.1527 164.574 25.146H164.529L164.339 25.1261L164.149 25.1042C164.112 25.1042 164.074 25.0948 164.037 25.0881C164 25.0815 163.942 25.0767 163.89 25.0682C163.815 25.0577 163.739 25.0454 163.664 25.0321L163.451 24.995L163.24 24.9542L163.103 24.9257L162.961 24.8944L162.752 24.846C162.693 24.8317 162.634 24.8175 162.575 24.8013C162.461 24.7728 162.346 24.7412 162.231 24.7064C162.065 24.6598 161.897 24.6114 161.727 24.5563C159.615 23.8916 157.804 21.8975 156.685 19.8559C156.526 19.5644 156.38 19.2719 156.25 18.9823C156.25 18.9801 156.25 18.9778 156.25 18.9756C156.226 18.9225 156.203 18.8693 156.181 18.8161L156.112 18.6575L156.092 18.6072C156.056 18.5189 156.021 18.4306 155.988 18.3423C155.929 18.1853 155.875 18.0308 155.826 17.8789C155.81 17.8285 155.794 17.7773 155.778 17.7269C155.77 17.7032 155.761 17.6795 155.751 17.6557L155.697 17.5104L155.669 17.4364C155.656 17.3984 155.641 17.3614 155.628 17.3234C155.579 17.1968 155.532 17.0657 155.489 16.9302C155.473 16.8875 155.46 16.8438 155.445 16.8011C155.444 16.7992 155.444 16.7973 155.445 16.7954C155.422 16.727 155.399 16.6577 155.378 16.5884C155.346 16.4849 155.314 16.3804 155.283 16.275C155.264 16.2048 155.244 16.1354 155.225 16.0652C155.199 15.9759 155.175 15.8876 155.152 15.7974C155.138 15.7414 155.123 15.6844 155.11 15.6274C155.085 15.5325 155.061 15.4318 155.039 15.333C155.018 15.2343 155 15.1564 154.981 15.0691C154.958 14.9608 154.936 14.8516 154.915 14.7434C154.894 14.6351 154.876 14.5344 154.858 14.4309C154.858 14.4233 154.858 14.4157 154.858 14.4082C154.841 14.3132 154.825 14.2087 154.81 14.109C154.797 14.0293 154.786 13.9514 154.774 13.8716C154.774 13.8679 154.774 13.864 154.774 13.8602C154.767 13.809 154.76 13.7577 154.754 13.7055C154.741 13.6105 154.73 13.5155 154.719 13.4272C154.712 13.3665 154.705 13.3066 154.699 13.2449C154.691 13.1642 154.682 13.0835 154.675 13.0028C154.675 12.9781 154.67 12.9534 154.668 12.9278C154.66 12.8328 154.651 12.7378 154.644 12.6429C154.644 12.621 154.644 12.6001 154.644 12.5793C154.637 12.4606 154.629 12.3428 154.623 12.2241C154.623 12.1624 154.618 12.0997 154.615 12.0342C154.612 11.9687 154.615 11.9088 154.608 11.8443L154.603 11.6107C154.592 10.9018 154.63 10.193 154.717 9.48931C154.727 9.401 154.738 9.31364 154.752 9.22628C154.883 8.27055 155.111 7.33048 155.431 6.42026C155.454 6.35474 155.478 6.28732 155.503 6.22275C155.539 6.1221 155.577 6.02334 155.616 5.92553C155.64 5.86571 155.663 5.80683 155.688 5.74796C156.08 4.78864 156.592 3.88307 157.213 3.05304C157.308 2.93055 157.403 2.81185 157.498 2.6941C157.562 2.61719 157.627 2.53932 157.693 2.4643C157.758 2.38929 157.825 2.31427 157.892 2.2421C158.061 2.05978 158.234 1.88506 158.412 1.71983C158.197 1.74733 157.988 1.81157 157.794 1.90975C157.73 1.94678 157.665 1.98381 157.604 2.0218L157.596 2.0275C157.486 2.09207 157.376 2.15759 157.267 2.22406C156.984 2.39625 156.703 2.57256 156.425 2.75298L156.244 2.87262C155.935 3.07583 155.628 3.28759 155.327 3.50505C155.238 3.56867 155.149 3.63324 155.061 3.69496C154.995 3.74149 154.929 3.78992 154.865 3.8393L154.728 3.9409L154.387 4.1764C154.261 4.27136 154.135 4.37391 154.007 4.47267C153.879 4.57143 153.757 4.67398 153.634 4.77654C153.511 4.87909 153.389 4.9807 153.267 5.08515C153.146 5.18961 153.025 5.29311 152.906 5.39946C152.79 5.50202 152.675 5.60552 152.56 5.70998C152.554 5.71456 152.548 5.71964 152.543 5.72517C152.435 5.82266 152.327 5.92205 152.221 6.02334L152.199 6.04328C152.104 6.13254 152.009 6.2218 151.914 6.31201C151.862 6.36139 151.811 6.41172 151.76 6.46205L151.507 6.71179C151.233 6.98526 150.965 7.26476 150.702 7.55027C150.665 7.59015 150.627 7.63098 150.59 7.67276C150.553 7.71455 150.501 7.76772 150.459 7.8171C150.416 7.86648 150.394 7.88927 150.364 7.92535C150.349 7.94054 150.336 7.95479 150.324 7.96998C150.267 8.03329 150.211 8.09659 150.156 8.1599C150.029 8.30613 149.902 8.45364 149.776 8.6024L149.673 8.72395L149.548 8.87588C149.463 8.98034 149.377 9.08511 149.293 9.1902L149.267 9.22248C149.196 9.31269 149.124 9.4029 149.053 9.49501C149.025 9.53015 148.996 9.56718 148.969 9.60326C148.902 9.68778 148.838 9.77419 148.773 9.8606C148.605 10.0828 148.44 10.3075 148.278 10.5348C148.197 10.6475 148.117 10.7618 148.038 10.8776C147.961 10.9887 147.884 11.1017 147.807 11.2147L147.749 11.3021C147.69 11.3913 147.63 11.4825 147.571 11.5727L147.476 11.7132C147.446 11.7598 147.416 11.8082 147.387 11.8538C147.357 11.8994 147.33 11.943 147.302 11.9877C147.254 12.0636 147.207 12.1396 147.159 12.2165C147.146 12.2374 147.132 12.2592 147.119 12.282C147.052 12.3922 146.984 12.5052 146.917 12.6172C146.906 12.6334 146.898 12.6495 146.888 12.6657C146.75 12.8983 146.616 13.1329 146.485 13.3693C146.469 13.394 146.456 13.4206 146.442 13.4453C146.398 13.5241 146.355 13.602 146.313 13.6817C146.284 13.733 146.257 13.7843 146.23 13.8365C146.181 13.9267 146.135 14.0179 146.086 14.11C146.023 14.2306 145.96 14.3512 145.896 14.4727C145.878 14.5069 145.861 14.5411 145.844 14.5762C145.806 14.6531 145.768 14.7301 145.731 14.807L145.659 14.9532L145.654 14.9656C145.617 15.0409 145.581 15.1169 145.545 15.1935L145.503 15.2827C145.44 15.4166 145.379 15.5514 145.319 15.6863C145.27 15.7955 145.224 15.9047 145.174 16.0148C145.118 16.143 145.064 16.2722 145.01 16.4013C144.989 16.4498 144.969 16.4963 144.949 16.5476C144.929 16.5988 144.916 16.6273 144.9 16.6682C144.874 16.7308 144.849 16.7935 144.824 16.8581C144.788 16.9454 144.754 17.0347 144.719 17.1221C144.707 17.1562 144.694 17.1895 144.68 17.2246C144.639 17.331 144.599 17.4383 144.559 17.5465C144.505 17.6947 144.451 17.8428 144.398 17.9909C144.364 18.0859 144.33 18.1875 144.297 18.2853C144.264 18.3831 144.23 18.4828 144.202 18.5816C144.18 18.6471 144.158 18.7117 144.138 18.7772L144.107 18.8721V18.8807C144.076 18.9756 144.045 19.0763 144.012 19.1751C144.002 19.2035 143.994 19.233 143.985 19.2624C143.963 19.3336 143.943 19.4039 143.922 19.4751C143.863 19.6752 143.806 19.8765 143.751 20.0791C143.723 20.1797 143.697 20.2804 143.67 20.3829C143.657 20.4333 143.643 20.4836 143.631 20.5349C143.631 20.5444 143.626 20.5538 143.624 20.5624C143.614 20.6042 143.604 20.645 143.593 20.6877C143.587 20.7068 143.582 20.7261 143.578 20.7457C143.558 20.8273 143.537 20.9109 143.518 20.9945C143.493 21.0961 143.47 21.1986 143.446 21.3012C143.422 21.4037 143.399 21.5063 143.378 21.6107L143.312 21.9193C143.298 21.9925 143.283 22.0656 143.268 22.1387C143.268 22.1539 143.263 22.1691 143.259 22.1852C143.255 22.2014 143.251 22.2223 143.248 22.2413C143.231 22.3267 143.215 22.4131 143.2 22.4995C143.196 22.5198 143.192 22.5397 143.189 22.5594C143.189 22.5727 143.189 22.586 143.181 22.6002C143.168 22.6743 143.155 22.7474 143.142 22.8224L143.136 22.8556C143.136 22.8699 143.132 22.8832 143.13 22.8965L143.11 23.0123C143.105 23.0389 143.101 23.0655 143.097 23.0911C143.094 23.1168 143.093 23.1158 143.091 23.1282C143.091 23.1604 143.08 23.1937 143.075 23.2231C143.069 23.2526 143.061 23.3067 143.055 23.3494C143.048 23.3922 143.042 23.4282 143.037 23.4681L143.025 23.5469C143.002 23.6989 142.981 23.8508 142.961 24.0037C142.955 24.0407 142.951 24.0777 142.946 24.1157C142.937 24.1813 142.929 24.2487 142.921 24.3151C142.921 24.3351 142.921 24.3531 142.913 24.3731C142.906 24.393 142.907 24.4338 142.903 24.468C142.894 24.543 142.886 24.6181 142.878 24.694C142.873 24.732 142.869 24.7709 142.866 24.8089C142.857 24.8792 142.851 24.9485 142.844 25.0188C142.844 25.053 142.837 25.0872 142.833 25.1223C142.827 25.1945 142.82 25.2657 142.814 25.3378C142.814 25.3616 142.814 25.3844 142.809 25.4081C142.799 25.5031 142.792 25.6047 142.784 25.7034C142.785 25.711 142.785 25.7186 142.784 25.7262C142.776 25.8316 142.769 25.9389 142.762 26.0443C142.762 26.0605 142.762 26.0747 142.762 26.0899C142.762 26.1051 142.762 26.1298 142.762 26.1497C142.756 26.2504 142.75 26.3529 142.745 26.4546C142.739 26.5723 142.734 26.6882 142.73 26.8059C142.73 26.8315 142.73 26.8553 142.73 26.88C142.73 26.9683 142.724 27.0566 142.722 27.1459V27.162C142.722 27.2133 142.722 27.2655 142.722 27.3168C142.722 27.4231 142.717 27.5295 142.717 27.6368C142.717 27.7593 142.717 27.8808 142.717 28.0043C142.717 28.1277 142.717 28.2436 142.717 28.3623V28.4572C142.717 28.5265 142.717 28.5949 142.721 28.6633C142.721 28.6956 142.721 28.7279 142.721 28.7582C142.721 28.7744 142.721 28.7905 142.721 28.8057C142.721 28.8209 142.721 28.8475 142.721 28.8674C142.721 28.9387 142.721 29.0089 142.728 29.0801C142.728 29.0963 142.728 29.1124 142.728 29.1276C142.728 29.1428 142.728 29.1561 142.728 29.1704C142.728 29.1846 142.728 29.1979 142.728 29.2112C142.733 29.3261 142.738 29.44 142.743 29.554C142.743 29.5606 142.743 29.5673 142.743 29.5739L142.749 29.6774C142.754 29.7648 142.758 29.8512 142.764 29.9376C142.764 29.9471 142.764 29.9547 142.764 29.9642C142.773 30.0829 142.78 30.2026 142.79 30.3213C142.79 30.3801 142.798 30.439 142.803 30.4988C142.808 30.5586 142.814 30.6156 142.818 30.6754C142.826 30.7704 142.835 30.8654 142.845 30.966C142.852 31.0306 142.858 31.0952 142.866 31.1607C142.87 31.2075 142.874 31.2541 142.88 31.3003C142.88 31.324 142.885 31.3477 142.888 31.3724L142.9 31.4797C142.9 31.5073 142.906 31.5339 142.909 31.5605C142.915 31.6108 142.921 31.6602 142.927 31.7095C142.947 31.8767 142.969 32.0428 142.992 32.2071C142.992 32.2071 142.992 32.2119 142.992 32.2147C143.006 32.3173 143.021 32.4208 143.038 32.5233C143.038 32.5395 143.038 32.5537 143.043 32.5689C143.049 32.5841 143.052 32.6221 143.056 32.6487C143.072 32.7531 143.089 32.8576 143.107 32.962C143.117 33.0266 143.128 33.0902 143.139 33.152C143.139 33.1842 143.15 33.2165 143.155 33.2469C143.164 33.3001 143.174 33.3533 143.184 33.4055C143.197 33.4805 143.21 33.5555 143.226 33.6305C143.234 33.679 143.244 33.7255 143.253 33.7758C143.266 33.8423 143.279 33.9088 143.292 33.9762C143.297 34.0009 143.303 34.0256 143.308 34.0512L143.325 34.1367C143.344 34.2316 143.363 34.3171 143.383 34.4083C143.388 34.4282 143.392 34.4481 143.397 34.469C143.412 34.5412 143.428 34.6134 143.444 34.6836C143.467 34.7862 143.491 34.8878 143.514 34.9894L143.52 35.0103C143.526 35.0397 143.532 35.0682 143.54 35.0967C143.553 35.1508 143.567 35.2059 143.58 35.2591C143.58 35.2781 143.589 35.298 143.595 35.317C143.601 35.336 143.606 35.3683 143.613 35.3939L143.653 35.5516C143.659 35.5753 143.665 35.5981 143.672 35.6218C143.687 35.6816 143.703 35.7415 143.718 35.7994C143.718 35.8089 143.723 35.8174 143.726 35.8279C143.735 35.8611 143.744 35.8934 143.753 35.9228C143.761 35.9523 143.762 35.9599 143.768 35.9779C143.786 36.0472 143.806 36.1175 143.825 36.1868C143.831 36.2049 143.835 36.222 143.84 36.24V36.2523C143.854 36.2998 143.868 36.3473 143.882 36.3957C143.896 36.4442 143.907 36.4821 143.92 36.5268C143.921 36.5317 143.923 36.5364 143.925 36.541C143.931 36.5676 143.94 36.5942 143.948 36.6198C143.968 36.6873 143.989 36.7556 144.01 36.824C144.04 36.9189 144.071 37.0225 144.105 37.1222C144.131 37.2048 144.157 37.2883 144.185 37.3719C144.212 37.4555 144.237 37.5305 144.264 37.6093C144.308 37.7432 144.354 37.8771 144.401 38.01C144.528 38.3664 144.66 38.72 144.797 39.0707C144.837 39.1723 144.878 39.273 144.92 39.3746C144.961 39.4762 144.999 39.5702 145.041 39.668C145.067 39.7307 145.094 39.7933 145.121 39.8579C145.171 39.9766 145.223 40.0934 145.275 40.2112C145.3 40.27 145.326 40.3289 145.354 40.3868C145.403 40.4989 145.454 40.61 145.506 40.7201C145.557 40.8303 145.601 40.9176 145.646 41.0154L145.676 41.0772L145.787 41.307L145.831 41.3953C145.894 41.5216 145.958 41.6469 146.021 41.7751C146.085 41.9033 146.147 42.0173 146.211 42.1369C146.219 42.1511 146.225 42.1654 146.234 42.1796C146.282 42.2689 146.329 42.3582 146.379 42.4474C146.403 42.4911 146.427 42.5367 146.452 42.5804C146.455 42.5856 146.458 42.5907 146.461 42.5956C146.491 42.6525 146.525 42.7095 146.556 42.7674L146.576 42.8045C146.592 42.832 146.608 42.8595 146.623 42.8871L146.656 42.945C146.711 43.04 146.766 43.1349 146.822 43.2299C146.826 43.2366 146.83 43.2436 146.833 43.2508C146.838 43.259 146.843 43.267 146.848 43.2745C146.877 43.3239 146.905 43.3695 146.935 43.4207C146.964 43.472 147.01 43.5461 147.048 43.6107C147.12 43.7303 147.194 43.849 147.267 43.9668C147.327 44.0617 147.39 44.1567 147.45 44.2516C147.484 44.3048 147.517 44.358 147.552 44.4102C147.608 44.4966 147.665 44.5821 147.722 44.6675C147.76 44.7264 147.799 44.7843 147.838 44.8423C147.849 44.8584 147.861 44.8736 147.871 44.8897L147.994 45.0702C148.057 45.1651 148.122 45.2601 148.183 45.3474L148.257 45.4509C148.389 45.6409 148.525 45.8241 148.662 46.0074C148.734 46.1024 148.807 46.1973 148.88 46.2923C148.888 46.3018 148.894 46.3113 148.901 46.3198L148.989 46.4338L149.029 46.485L149.055 46.5192C149.091 46.5658 149.128 46.6142 149.164 46.6569C149.172 46.6674 149.18 46.6769 149.188 46.6883C149.196 46.6996 149.204 46.7082 149.212 46.7177C149.238 46.7509 149.264 46.7842 149.292 46.8126L149.411 46.9608L149.601 47.1953L149.677 47.2903L149.858 47.5039C149.911 47.5676 149.965 47.6312 150.02 47.6939C150.098 47.7888 150.178 47.8752 150.258 47.9654C150.274 47.9835 150.29 48.0025 150.307 48.0205L150.497 48.2361L150.531 48.2731C150.6 48.35 150.669 48.426 150.74 48.501L150.988 48.764C151.07 48.8514 151.154 48.9388 151.238 49.0242C151.323 49.1097 151.406 49.1961 151.492 49.2816C151.595 49.3851 151.7 49.4886 151.804 49.5902C151.823 49.6101 151.842 49.6292 151.863 49.6472C152.011 49.7905 152.161 49.932 152.31 50.0716L152.53 50.2739C152.53 50.2739 152.535 50.2796 152.539 50.2805C152.634 50.3669 152.729 50.4524 152.824 50.536C152.838 50.5502 152.853 50.5626 152.87 50.5768L152.9 50.6034C152.995 50.6841 153.082 50.7639 153.174 50.8427C153.178 50.8464 153.182 50.8499 153.187 50.8531C153.524 51.1437 153.867 51.4295 154.218 51.7077C156.208 53.2692 158.386 54.575 160.701 55.5944C161.953 56.1451 163.409 56.1955 164.554 55.3665C166.271 54.1244 166.446 51.853 166.472 49.9111C166.472 49.751 166.472 49.5905 166.472 49.4297V49.4079C166.466 49.2597 166.461 49.0841 166.46 48.8846C166.46 48.7223 166.46 48.5437 166.465 48.3519V48.2874L166.46 43.4948C166.451 41.5455 166.889 39.6201 167.741 37.8667C168.593 36.1132 169.835 34.5783 171.372 33.3799C173.486 31.7338 176.088 30.8405 178.767 30.8416L179.867 30.8293C180.027 30.8236 180.189 30.8226 180.356 30.8245H180.451H180.555C180.606 30.8245 180.657 30.8245 180.709 30.8312C180.713 30.8302 180.717 30.8302 180.721 30.8312C180.787 30.8312 180.854 30.8378 180.921 30.8435C180.926 30.8426 180.931 30.8426 180.936 30.8435C180.997 30.8435 181.057 30.8521 181.118 30.8578H181.164L181.354 30.8777L181.544 30.8995L181.656 30.9157L181.802 30.9356C181.878 30.9461 181.953 30.9584 182.029 30.9717L182.242 31.0088C182.312 31.0211 182.383 31.0353 182.453 31.0496C182.496 31.0581 182.537 31.0667 182.58 31.0771C182.623 31.0876 182.68 31.098 182.731 31.1094C182.842 31.1341 182.955 31.1607 183.069 31.1892L183.215 31.2262L183.462 31.2936C183.628 31.3402 183.796 31.3886 183.966 31.4437C185.059 31.7893 186.072 32.4882 186.949 33.3694C187.989 34.429 188.834 35.6641 189.444 37.0177V37.0244L189.513 37.1839C189.521 37.1991 189.527 37.2143 189.534 37.2295L189.581 37.3425C189.587 37.3596 189.594 37.3757 189.601 37.3928C189.638 37.4811 189.674 37.5694 189.706 37.6577C189.725 37.7052 189.743 37.7527 189.76 37.8011C189.78 37.8571 189.8 37.9113 189.818 37.9663C189.826 37.9901 189.835 38.0138 189.842 38.0376C189.848 38.0613 189.86 38.0926 189.868 38.1192L189.88 38.1525C189.892 38.1923 189.904 38.2322 189.916 38.2712L189.943 38.3424L189.997 38.4877C190.008 38.5123 190.016 38.537 190.025 38.5617C190.033 38.5864 190.053 38.6367 190.066 38.6747C190.111 38.7963 190.154 38.9178 190.196 39.0413C190.215 39.0935 190.232 39.1457 190.249 39.1989C190.266 39.2521 190.285 39.31 190.302 39.367C190.319 39.424 190.333 39.4619 190.348 39.5113C190.362 39.5607 190.385 39.6348 190.404 39.7012C190.423 39.7677 190.436 39.8123 190.451 39.8684C190.478 39.9633 190.503 40.0583 190.528 40.1532C190.548 40.2263 190.566 40.3004 190.585 40.3745C190.604 40.4486 190.618 40.5112 190.635 40.5805C190.646 40.6261 190.656 40.6755 190.666 40.7182C190.675 40.761 190.692 40.8331 190.705 40.8911C190.714 40.9338 190.723 40.9775 190.732 41.0211C190.748 41.1 190.764 41.1788 190.78 41.2585C190.8 41.362 190.819 41.4665 190.837 41.571C190.836 41.5785 190.836 41.5862 190.837 41.5937C190.854 41.6887 190.87 41.7932 190.885 41.8929C190.898 41.9717 190.91 42.0505 190.92 42.1303C190.92 42.1303 190.92 42.1379 190.92 42.1417C190.928 42.1929 190.935 42.2442 190.941 42.2964C190.954 42.3914 190.965 42.4864 190.975 42.5747C190.983 42.6354 190.99 42.6953 190.995 42.757C191.005 42.8377 191.013 42.9184 191.02 42.9991C191.02 43.0238 191.02 43.0485 191.027 43.0741C191.035 43.1691 191.044 43.2641 191.05 43.359C191.05 43.3809 191.05 43.4008 191.05 43.4217C191.05 43.4426 191.05 43.4882 191.058 43.5214C191.064 43.6059 191.068 43.6914 191.071 43.7768C191.071 43.8386 191.078 43.9003 191.08 43.9668C191.082 44.0332 191.086 44.0921 191.087 44.1567C191.087 44.2345 191.087 44.3133 191.092 44.3903C191.103 45.0992 191.065 45.808 190.978 46.5116C190.968 46.5999 190.956 46.6873 190.943 46.7747C190.811 47.7303 190.584 48.6703 190.264 49.5807C190.24 49.6472 190.217 49.7136 190.192 49.7782C190.155 49.8788 190.118 49.9776 190.079 50.0754C190.055 50.1352 190.032 50.1941 190.007 50.253C189.614 51.2121 189.102 52.1176 188.482 52.9479C188.39 53.0701 188.295 53.1897 188.197 53.3068C188.132 53.3847 188.068 53.4616 188.002 53.5366C187.937 53.6117 187.87 53.6867 187.802 53.7588C187.634 53.9412 187.46 54.1159 187.282 54.2811C187.498 54.2536 187.707 54.1894 187.901 54.0912C187.965 54.0542 188.03 54.0171 188.091 53.9791L188.099 53.9734C188.208 53.9089 188.318 53.8434 188.428 53.7769L188.579 53.6819C188.663 53.6307 188.747 53.5784 188.83 53.5262L188.962 53.4426C189.066 53.3781 189.168 53.3116 189.27 53.2451L189.45 53.1255L189.682 52.9716L189.855 52.8529C189.95 52.7874 190.045 52.721 190.14 52.6545C190.215 52.6013 190.29 52.5481 190.365 52.4931L190.631 52.3031L190.827 52.1578L190.964 52.0562L190.973 52.0496L191.279 51.815C191.406 51.7201 191.531 51.6175 191.659 51.5188C191.787 51.42 191.909 51.3175 192.032 51.2149C192.156 51.1124 192.268 51.0183 192.385 50.9186L192.407 50.8997C192.525 50.799 192.644 50.6964 192.76 50.592C192.76 50.5924 192.761 50.5926 192.762 50.5926C192.763 50.5926 192.764 50.5924 192.764 50.592C192.88 50.4894 192.995 50.3859 193.11 50.2815L193.119 50.2739C193.236 50.1669 193.354 50.0583 193.471 49.9482C193.566 49.8589 193.661 49.7696 193.756 49.6794L193.86 49.5778L193.91 49.5294L194.162 49.2797C194.436 49.0062 194.704 48.7267 194.967 48.4412C195.002 48.4042 195.037 48.3662 195.071 48.3272C195.105 48.2883 195.166 48.2256 195.211 48.1744L195.261 48.1193L195.307 48.0661C195.385 47.9806 195.461 47.8942 195.536 47.8069C195.649 47.6777 195.761 47.5486 195.871 47.4166C195.88 47.4075 195.888 47.398 195.895 47.3881L195.998 47.2666L196.123 47.1146C196.21 47.0102 196.294 46.9057 196.379 46.8003C196.387 46.7889 196.395 46.7785 196.404 46.768C196.475 46.6778 196.547 46.5876 196.618 46.4955C196.642 46.466 196.665 46.4366 196.688 46.4062L196.702 46.3872C196.779 46.2923 196.855 46.1897 196.929 46.09C197.003 45.9903 197.076 45.8935 197.149 45.7947C197.222 45.6959 197.302 45.5829 197.379 45.4756C197.384 45.4694 197.389 45.4627 197.393 45.4557C197.473 45.3427 197.553 45.2278 197.633 45.1129C197.713 44.998 197.787 44.8888 197.864 44.7758L197.921 44.6884C197.978 44.6068 198.031 44.5242 198.085 44.4415C198.091 44.434 198.096 44.4261 198.1 44.4178C198.115 44.396 198.13 44.3732 198.144 44.3513L198.191 44.2773C198.237 44.207 198.281 44.1358 198.326 44.0655C198.401 43.9468 198.474 43.8281 198.548 43.7085L198.575 43.6657C198.619 43.5936 198.663 43.5204 198.706 43.4483L198.751 43.3733L198.765 43.3495L198.783 43.3182C198.848 43.208 198.912 43.0979 198.973 42.9868C199.034 42.8757 199.111 42.7437 199.179 42.6212L199.222 42.5452C199.265 42.4664 199.308 42.3885 199.351 42.3088C199.361 42.2907 199.371 42.2708 199.381 42.2518C199.392 42.2328 199.416 42.1872 199.433 42.1568C199.478 42.0771 199.52 41.9964 199.562 41.9157C199.577 41.8872 199.592 41.8587 199.606 41.8302C199.645 41.7571 199.682 41.683 199.72 41.6089L199.764 41.5206C199.764 41.5121 199.771 41.5054 199.776 41.4969L199.816 41.4171L199.874 41.3003C199.893 41.2623 199.911 41.2244 199.929 41.1864C199.947 41.1484 199.977 41.0914 200 41.0401C200.012 41.0154 200.024 40.9927 200.034 40.968C200.07 40.8949 200.105 40.8227 200.138 40.7496C200.191 40.6356 200.244 40.5217 200.296 40.4077L200.341 40.3071C200.39 40.1979 200.436 40.0887 200.485 39.9785C200.535 39.8684 200.58 39.762 200.624 39.6528C200.634 39.6329 200.641 39.612 200.65 39.592C200.652 39.5877 200.654 39.5833 200.655 39.5787C200.674 39.535 200.692 39.4904 200.711 39.4458C200.729 39.4012 200.744 39.366 200.76 39.3252C200.768 39.3034 200.777 39.2825 200.786 39.2597C200.794 39.2369 200.816 39.1856 200.831 39.1486C200.878 39.0337 200.926 38.9178 200.967 38.801C201.008 38.6842 201.062 38.557 201.106 38.4335C201.159 38.2911 201.211 38.1477 201.261 38.0034C201.265 37.9911 201.269 37.979 201.275 37.9673L201.363 37.709C201.371 37.6843 201.379 37.6606 201.388 37.6368C201.405 37.5875 201.421 37.5419 201.437 37.4887C201.446 37.4631 201.454 37.4384 201.462 37.4127C201.469 37.3871 201.472 37.3823 201.477 37.3672C201.479 37.3616 201.481 37.3559 201.483 37.3501L201.525 37.2171C201.533 37.1953 201.54 37.1725 201.547 37.1497C201.555 37.1269 201.554 37.1288 201.557 37.1184V37.1117C201.585 37.0168 201.615 36.9275 201.642 36.8354C201.648 36.8183 201.653 36.8012 201.657 36.7841V36.7775L201.672 36.73C201.693 36.6588 201.714 36.5875 201.735 36.5173C201.795 36.3169 201.851 36.1156 201.906 35.9133C201.934 35.8127 201.96 35.712 201.987 35.6095C202 35.5591 202.013 35.5088 202.026 35.4575C202.026 35.448 202.03 35.4386 202.033 35.43L202.045 35.3854C202.052 35.3588 202.058 35.3322 202.064 35.3047C202.09 35.2031 202.115 35.1014 202.139 34.9979C202.162 34.8944 202.187 34.7938 202.211 34.6912C202.235 34.5887 202.257 34.4861 202.279 34.3817L202.345 34.0731C202.359 33.9999 202.374 33.9268 202.388 33.8537C202.388 33.8385 202.394 33.8233 202.398 33.8072C202.402 33.791 202.406 33.7701 202.408 33.7511C202.425 33.6657 202.442 33.5793 202.457 33.4929C202.457 33.4729 202.465 33.453 202.468 33.433C202.471 33.4131 202.468 33.4083 202.475 33.3951C202.489 33.3181 202.502 33.2412 202.516 33.1634C202.52 33.1442 202.523 33.1249 202.525 33.1054C202.533 33.0636 202.54 33.0219 202.547 32.9801C202.552 32.9535 202.556 32.9269 202.559 32.9013C202.563 32.8756 202.569 32.8481 202.573 32.8215C202.576 32.7949 202.578 32.7845 202.582 32.7655C202.595 32.6838 202.608 32.6021 202.62 32.5205L202.632 32.4417C202.655 32.2897 202.676 32.1378 202.696 31.9849C202.702 31.9479 202.706 31.9109 202.71 31.8729C202.72 31.8074 202.727 31.7399 202.736 31.6735C202.736 31.6535 202.741 31.6355 202.743 31.6155L202.754 31.5206C202.763 31.4456 202.771 31.3705 202.779 31.2946C202.779 31.2566 202.788 31.2177 202.791 31.1797C202.8 31.1094 202.806 31.0401 202.813 30.9698C202.813 30.9356 202.82 30.9014 202.823 30.8663C202.83 30.7941 202.837 30.7229 202.842 30.6508C202.842 30.627 202.847 30.6042 202.848 30.5805C202.858 30.4855 202.865 30.3839 202.873 30.2852C202.873 30.2785 202.873 30.2709 202.873 30.2624C202.873 30.1931 202.882 30.1247 202.886 30.0554C202.886 30.0031 202.894 29.9509 202.896 29.8987C202.896 29.8787 202.896 29.8588 202.896 29.8389C202.903 29.7382 202.909 29.6357 202.914 29.534C202.919 29.4163 202.925 29.3005 202.929 29.1827C202.929 29.1571 202.929 29.1333 202.929 29.1086C202.929 29.0203 202.934 28.932 202.936 28.8428V28.8266C202.936 28.7753 202.936 28.7231 202.936 28.6718C202.936 28.5655 202.942 28.4591 202.942 28.3518C202.942 28.2293 202.942 28.1078 202.942 27.9843C202.942 27.8609 203.002 27.7716 203 27.6529Z" fill="#A52732"/>
<path opacity="0.3" d="M202.993 28.0111C202.993 37.6342 198.482 46.2004 191.465 51.7231C190.315 52.6232 189.103 53.4401 187.837 54.1674C187.672 54.2408 187.497 54.29 187.318 54.3136C187.234 54.3251 187.148 54.3308 187.063 54.3307C186.732 54.331 186.406 54.2458 186.118 54.0835C185.829 53.9211 185.588 53.687 185.416 53.4039L185.411 53.3944C185.384 53.346 185.358 53.2994 185.335 53.2539C185.332 53.25 185.329 53.2454 185.328 53.2406C185.192 52.9832 185.114 52.7952 185.114 52.7952C185.114 52.7952 183.827 48.6446 180.228 43.3165C178.794 41.1939 177.197 39.1856 175.453 37.3094L175.445 37.298C175.147 36.9494 174.83 36.6181 174.495 36.3057L174.485 36.2953C172.801 34.7291 170.697 33.6876 168.431 33.2979C166.164 32.9082 163.834 33.1873 161.723 34.1011C159.613 35.0148 157.815 36.5236 156.548 38.4431C155.282 40.3625 154.602 42.6093 154.592 44.9089V44.9583C154.591 45.6298 154.648 46.3001 154.762 46.9619C154.761 46.9701 154.761 46.9784 154.762 46.9866C154.761 46.9885 154.761 46.9904 154.762 46.9923C155.264 50.2655 156.8 53.0345 158.857 54.7067C155.105 52.7363 151.808 49.9982 149.183 46.6704L149.178 46.6647C144.982 41.3537 142.704 34.7799 142.715 28.0111C142.715 18.388 147.227 9.82185 154.243 4.29908C155.393 3.39897 156.606 2.58215 157.872 1.85485C158.037 1.78145 158.211 1.7322 158.39 1.70862C158.475 1.69716 158.56 1.69145 158.646 1.69153C158.977 1.69122 159.302 1.77637 159.591 1.93873C159.879 2.10109 160.121 2.33518 160.292 2.61832L160.298 2.62781C160.325 2.67624 160.35 2.72277 160.374 2.76835C160.377 2.77248 160.379 2.77695 160.381 2.78165C160.516 3.03898 160.594 3.227 160.594 3.227C160.594 3.227 161.882 7.37763 165.481 12.7057C166.918 14.8323 168.517 16.8447 170.264 18.7251C170.561 19.074 170.878 19.4053 171.213 19.7175L171.224 19.7279C172.908 21.295 175.012 22.3372 177.28 22.727C179.547 23.1168 181.878 22.8374 183.989 21.9229C186.1 21.0083 187.899 19.4984 189.165 17.5777C190.431 15.6571 191.11 13.409 191.119 11.1085V11.0668C191.119 10.3869 191.061 9.70834 190.945 9.03844C190.945 9.03658 190.945 9.03461 190.945 9.03275C190.442 5.75764 188.908 2.98771 186.85 1.31549C191.72 3.86971 195.798 7.70724 198.643 12.4127C201.489 17.1181 202.993 22.5122 202.993 28.0111Z" fill="#591B20"/>
</svg>
