<svg width="32" height="32" viewBox="0 0 32 32" fill="none" xmlns="http://www.w3.org/2000/svg">
<path opacity="0.5" d="M21.3333 5.33563C24.2334 5.35177 25.8039 5.48038 26.8284 6.50489C28 7.67646 28 9.56208 28 13.3333V21.3333C28 25.1045 28 26.9902 26.8284 28.1617C25.6569 29.3333 23.7712 29.3333 20 29.3333H12C8.22876 29.3333 6.34315 29.3333 5.17157 28.1617C4 26.9902 4 25.1046 4 21.3333V13.3333C4 9.56208 4 7.67646 5.17157 6.50489C6.19608 5.48038 7.76663 5.35177 10.6667 5.33563" stroke="#FAFEFD" stroke-width="2"/>
<path d="M14 18.6667L22.6667 18.6667" stroke="#FAFEFD" stroke-width="2" stroke-linecap="round"/>
<path d="M9.33331 18.6667H9.99998" stroke="#FAFEFD" stroke-width="2" stroke-linecap="round"/>
<path d="M9.33331 14H9.99998" stroke="#FAFEFD" stroke-width="2" stroke-linecap="round"/>
<path d="M9.33331 23.3333H9.99998" stroke="#FAFEFD" stroke-width="2" stroke-linecap="round"/>
<path d="M14 14H22.6667" stroke="#FAFEFD" stroke-width="2" stroke-linecap="round"/>
<path d="M14 23.3333H22.6667" stroke="#FAFEFD" stroke-width="2" stroke-linecap="round"/>
<path d="M10.6667 4.66669C10.6667 3.56212 11.5621 2.66669 12.6667 2.66669H19.3334C20.4379 2.66669 21.3334 3.56212 21.3334 4.66669V6.00002C21.3334 7.10459 20.4379 8.00002 19.3334 8.00002H12.6667C11.5621 8.00002 10.6667 7.10459 10.6667 6.00002V4.66669Z" stroke="#FAFEFD" stroke-width="2"/>
</svg>
