<svg width="32" height="32" viewBox="0 0 32 32" fill="none" xmlns="http://www.w3.org/2000/svg">
<g opacity="0.5">
<path d="M12 16C12 16.7364 11.403 17.3334 10.6666 17.3334C9.93027 17.3334 9.33331 16.7364 9.33331 16C9.33331 15.2636 9.93027 14.6667 10.6666 14.6667C11.403 14.6667 12 15.2636 12 16Z" fill="#09070C"/>
<path d="M17.3333 16C17.3333 16.7364 16.7364 17.3334 16 17.3334C15.2636 17.3334 14.6666 16.7364 14.6666 16C14.6666 15.2636 15.2636 14.6667 16 14.6667C16.7364 14.6667 17.3333 15.2636 17.3333 16Z" fill="#09070C"/>
<path d="M22.6666 16C22.6666 16.7364 22.0697 17.3334 21.3333 17.3334C20.5969 17.3334 20 16.7364 20 16C20 15.2636 20.5969 14.6667 21.3333 14.6667C22.0697 14.6667 22.6666 15.2636 22.6666 16Z" fill="#09070C"/>
</g>
<path d="M16 29.3334C23.3638 29.3334 29.3333 23.3638 29.3333 16C29.3333 8.63622 23.3638 2.66669 16 2.66669C8.63618 2.66669 2.66665 8.63622 2.66665 16C2.66665 18.1329 3.16747 20.1489 4.05793 21.9366C4.29456 22.4117 4.37333 22.9548 4.23614 23.4675L3.442 26.4356C3.09725 27.724 4.276 28.9027 5.56444 28.558L8.53249 27.7639C9.04522 27.6267 9.58826 27.7054 10.0634 27.9421C11.8511 28.8325 13.8671 29.3334 16 29.3334Z" stroke="#09070C" stroke-width="2"/>
</svg>
