<svg width="32" height="32" viewBox="0 0 32 32" fill="none" xmlns="http://www.w3.org/2000/svg">
<g id="vuesax/outline/setting-2">
<g id="vuesax/outline/setting-2_2">
<g id="setting-2">
<path id="Vector" d="M16 21C13.24 21 11 18.76 11 16C11 13.24 13.24 11 16 11C18.76 11 21 13.24 21 16C21 18.76 18.76 21 16 21ZM16 13C14.3467 13 13 14.3467 13 16C13 17.6533 14.3467 19 16 19C17.6533 19 19 17.6533 19 16C19 14.3467 17.6533 13 16 13Z" fill="#133675"/>
<path id="Vector_2" d="M20.2798 29.5867C19.9998 29.5867 19.7198 29.5467 19.4398 29.48C18.6132 29.2533 17.9198 28.7333 17.4798 28L17.3198 27.7333C16.5332 26.3733 15.4532 26.3733 14.6665 27.7333L14.5198 27.9867C14.0798 28.7333 13.3865 29.2667 12.5598 29.48C11.7198 29.7067 10.8532 29.5867 10.1198 29.1467L7.8265 27.8267C7.01317 27.36 6.4265 26.6 6.17317 25.68C5.93317 24.76 6.05317 23.8133 6.51984 23C6.9065 22.32 7.01317 21.7067 6.7865 21.32C6.55984 20.9333 5.9865 20.7067 5.19984 20.7067C3.25317 20.7067 1.6665 19.12 1.6665 17.1733V14.8267C1.6665 12.88 3.25317 11.2933 5.19984 11.2933C5.9865 11.2933 6.55984 11.0667 6.7865 10.68C7.01317 10.2933 6.91984 9.68001 6.51984 9.00001C6.05317 8.18667 5.93317 7.22667 6.17317 6.32001C6.41317 5.40001 6.99984 4.64001 7.8265 4.17334L10.1332 2.85334C11.6398 1.96001 13.6265 2.48001 14.5332 4.01334L14.6932 4.28001C15.4798 5.64001 16.5598 5.64001 17.3465 4.28001L17.4932 4.02667C18.3998 2.48001 20.3865 1.96001 21.9065 2.86667L24.1998 4.18667C25.0132 4.65334 25.5998 5.41334 25.8532 6.33334C26.0932 7.25334 25.9732 8.20001 25.5065 9.01334C25.1198 9.69334 25.0132 10.3067 25.2398 10.6933C25.4665 11.08 26.0398 11.3067 26.8265 11.3067C28.7732 11.3067 30.3598 12.8933 30.3598 14.84V17.1867C30.3598 19.1333 28.7732 20.72 26.8265 20.72C26.0398 20.72 25.4665 20.9467 25.2398 21.3333C25.0132 21.72 25.1065 22.3333 25.5065 23.0133C25.9732 23.8267 26.1065 24.7867 25.8532 25.6933C25.6132 26.6133 25.0265 27.3733 24.1998 27.84L21.8932 29.16C21.3865 29.44 20.8398 29.5867 20.2798 29.5867ZM15.9998 24.6533C17.1865 24.6533 18.2932 25.4 19.0532 26.72L19.1998 26.9733C19.3598 27.2533 19.6265 27.4533 19.9465 27.5333C20.2665 27.6133 20.5865 27.5733 20.8532 27.4133L23.1598 26.08C23.5065 25.88 23.7732 25.5467 23.8798 25.1467C23.9865 24.7467 23.9332 24.3333 23.7332 23.9867C22.9732 22.68 22.8798 21.3333 23.4665 20.3067C24.0532 19.28 25.2665 18.6933 26.7865 18.6933C27.6398 18.6933 28.3198 18.0133 28.3198 17.16V14.8133C28.3198 13.9733 27.6398 13.28 26.7865 13.28C25.2665 13.28 24.0532 12.6933 23.4665 11.6667C22.8798 10.64 22.9732 9.29334 23.7332 7.98667C23.9332 7.64001 23.9865 7.22667 23.8798 6.82667C23.7732 6.42667 23.5198 6.10667 23.1732 5.89334L20.8665 4.57334C20.2932 4.22667 19.5332 4.42667 19.1865 5.01334L19.0398 5.26667C18.2798 6.58667 17.1732 7.33334 15.9865 7.33334C14.7998 7.33334 13.6932 6.58667 12.9332 5.26667L12.7865 5.00001C12.4532 4.44001 11.7065 4.24001 11.1332 4.57334L8.8265 5.90667C8.47984 6.10667 8.21317 6.44001 8.1065 6.84001C7.99984 7.24001 8.05317 7.65334 8.25317 8.00001C9.01317 9.30667 9.1065 10.6533 8.51984 11.68C7.93317 12.7067 6.71984 13.2933 5.19984 13.2933C4.3465 13.2933 3.6665 13.9733 3.6665 14.8267V17.1733C3.6665 18.0133 4.3465 18.7067 5.19984 18.7067C6.71984 18.7067 7.93317 19.2933 8.51984 20.32C9.1065 21.3467 9.01317 22.6933 8.25317 24C8.05317 24.3467 7.99984 24.76 8.1065 25.16C8.21317 25.56 8.4665 25.88 8.81317 26.0933L11.1198 27.4133C11.3998 27.5867 11.7332 27.6267 12.0398 27.5467C12.3598 27.4667 12.6265 27.2533 12.7998 26.9733L12.9465 26.72C13.7065 25.4133 14.8132 24.6533 15.9998 24.6533Z" fill="#133675"/>
</g>
</g>
</g>
</svg>
